<?xml version="1.0" encoding="utf-8"?>
<!-- Generator: Adobe Illustrator 16.0.0, SVG Export Plug-In . SVG Version: 6.00 Build 0)  -->
<!DOCTYPE svg PUBLIC "-//W3C//DTD SVG 1.1//EN" "http://www.w3.org/Graphics/SVG/1.1/DTD/svg11.dtd">
<svg version="1.1" id="Layer_1" xmlns="http://www.w3.org/2000/svg" xmlns:xlink="http://www.w3.org/1999/xlink" x="0px" y="0px"
	 width="108px" height="108px" viewBox="0 0 108 108" enable-background="new 0 0 108 108" xml:space="preserve">
<path fill="#3D3C3A" d="M86.226,9.55l9.699-1.032v91.187l-9.699-1.029V9.55z"/>
<path fill="#FFFFFF" d="M86.021,7.899c0,0,2.692,2.371,4.538,3.095c1.76,0.69,3.507,0.206,3.507,0.206v86.855 c0,0-2.089-0.311-3.921,0.208c-2.162,0.61-4.127,1.855-4.127,1.855V7.899H86.021z"/>
<path fill="#3D3C3A" d="M11.336,13.615c0,0,0.901-2.084,3.199-3.431c1.343-0.787,2.784-0.882,2.784-0.882l69.732-5.367v100 l-69.732-5.464c0,0-2.286-0.562-4.049-1.951c-1.328-1.049-1.934-2.385-1.934-2.385V13.615z"/>
<path fill="#000FE8" d="M11.77,13.599c0,0,0.202-1.212,2.377-2.747c1.27-0.896,2.78-0.964,2.78-0.964L86.04,4.524v98.821 l-69.148-5.607c0,0-1.495-0.418-2.836-1.338c-1.523-1.045-2.007-1.835-2.286-2.337V13.599L11.77,13.599z"/>
<path fill="#FFFFFF" d="M54.059,100.75l31.912-72.229L86.04,4.524l-18.938,1.47L40.993,67.306L17.681,26.045 c0,0-0.389-0.805-2.76-0.828c-1.772-0.02-3.138,0.554-3.138,0.554V64.13c0,0,0.985,0.894,1.978,0.908 c1.455,0.024,2.822-0.455,3.597,0.214c-0.026,0,17.602,33.953,17.602,33.953L54.059,100.75z"/>
<path fill="#FF2202" d="M36.822,99.355c0,0-18.96-35.279-18.981-35.279c-0.574-0.632-2.296-0.129-3.301-0.205 c-1.059-0.083-2.758-1.256-2.758-1.256l-0.071-35.894c0,0,1.907-0.585,3.241-0.606c1.335-0.021,1.947,0.825,1.947,0.825 l24.255,42.912L68.34,5.899l17.7-1.374v20.42l-33.59,75.759"/>
<path opacity="0.7" enable-background="new" d="M11.783,13.547v80.536c0.157,0.28,0.383,0.648,0.806,1.096v-82.95 C11.999,12.907,11.821,13.399,11.783,13.547z"/>
<path opacity="0.6" enable-background="new" d="M12.589,12.229v82.946c0.211,0.228,0.475,0.47,0.806,0.734V11.434 C13.058,11.721,12.801,11.984,12.589,12.229z"/>
<path opacity="0.5" enable-background="new" d="M14.147,10.853c-0.285,0.201-0.531,0.395-0.752,0.583v84.474 c0.198,0.158,0.411,0.32,0.663,0.494c0.046,0.034,0.095,0.06,0.144,0.091V10.82C14.183,10.831,14.165,10.839,14.147,10.853z"/>
<path opacity="0.4" enable-background="new" d="M14.201,10.82v85.672c0.269,0.177,0.542,0.336,0.806,0.473V10.375 C14.737,10.493,14.466,10.638,14.201,10.82z"/>
<path opacity="0.3" enable-background="new" d="M15.006,10.375v86.589c0.287,0.149,0.558,0.273,0.806,0.379V10.09 C15.561,10.159,15.29,10.251,15.006,10.375z"/>
<path opacity="0.2" enable-background="new" d="M15.813,10.09v87.254c0.33,0.139,0.614,0.243,0.806,0.309V9.92 C16.42,9.948,16.138,10.001,15.813,10.09z"/>
<path opacity="0.1" enable-background="new" d="M16.927,9.888c0,0-0.119,0.006-0.309,0.034v87.73 c0.171,0.057,0.275,0.089,0.275,0.089l0.53,0.041V9.85L16.927,9.888z"/>
</svg>
